<svg width="120" height="120" viewBox="0 0 120 120" fill="none" xmlns="http://www.w3.org/2000/svg">
<g clip-path="url(#clip0)">
<path d="M95.4037 9.72826C95.4037 4.35559 91.0482 0 85.6755 0H34.0761C28.7034 0 24.3478 4.35559 24.3478 9.72826V110.272C24.3478 115.644 28.7034 120 34.0761 120H85.6755C91.0482 120 95.4037 115.644 95.4037 110.272V9.72826ZM63.0483 106.569C63.0483 108.321 61.6285 109.742 59.8758 109.742C58.1231 109.742 56.7032 108.321 56.7032 106.569C56.7032 104.817 58.1231 103.396 59.8758 103.396C61.6275 103.398 63.0464 104.818 63.0483 106.569ZM63.8383 96.2277L62.6068 94.0149C62.6048 94.012 62.6039 94.0091 62.6019 94.0062L55.6163 81.4655C56.7508 80.7706 58.2211 80.9899 59.1033 81.9847L61.6382 84.8923C62.1827 85.5163 63.0581 85.7376 63.8335 85.4464C64.6099 85.1553 65.1242 84.4129 65.1233 83.584C65.1184 76.4616 65.1174 67.1671 65.1291 62.3942C65.1291 61.9623 65.5416 61.8643 65.7832 61.8643H66.7576C67.0837 61.8643 67.4127 62.0167 67.4136 62.3962C67.4146 63.5462 67.3438 79.0334 67.3428 79.1916C67.3428 79.2789 67.3292 79.3556 67.3292 79.44V80.2552C67.3292 81.3529 68.2192 82.2428 69.3168 82.2428C70.4144 82.2428 71.3044 81.3529 71.3044 80.2552V75.4765C71.3044 75.3474 71.4684 75.2795 71.5975 75.2795H73.5782C73.6345 75.2717 73.6898 75.2902 73.7306 75.328C73.7714 75.3668 73.7927 75.4212 73.7888 75.4765V81.809C73.7888 82.9066 74.6788 83.7966 75.7764 83.7966C76.874 83.7966 77.764 82.9066 77.764 81.809V77.0322C77.7815 76.8896 77.897 76.7799 78.0396 76.7702H80.0029C80.1388 76.7828 80.2446 76.8954 80.2475 77.0322V81.809C80.2475 82.9066 81.1374 83.7966 82.2351 83.7966C83.3337 83.7966 84.2226 82.9066 84.2226 81.809V81.0928C84.2091 80.9074 84.2634 80.723 84.376 80.5755C84.4488 80.5066 84.5487 80.4746 84.6477 80.4882L85.6891 80.4911C85.8579 80.4823 86.0239 80.5435 86.1471 80.6599C86.2704 80.7764 86.3403 80.9375 86.3422 81.1073C86.3529 85.1999 86.3519 85.2747 86.348 87.2855C86.3461 88.354 86.3432 89.9719 86.3403 93.0212C86.3374 96.6625 83.3919 99.6157 79.7516 99.6273H69.5924C67.2001 99.6196 64.999 98.3191 63.8383 96.2277V96.2277ZM48.8801 70.3106C47.8271 70.3009 46.8275 69.8447 46.1287 69.0567C45.5318 68.3929 45.2475 67.5068 45.3465 66.6198L47.862 44.7205H49.9379V49.8835C49.9379 50.9821 50.8278 51.8711 51.9255 51.8711C53.0231 51.8711 53.9131 50.9821 53.9131 49.8835V44.7205H66.3354V49.8835C66.3354 50.9821 67.2254 51.8711 68.323 51.8711C69.4206 51.8711 70.3106 50.9821 70.3106 49.8835V44.7205H72.0235L74.539 66.5916C74.6371 67.4689 74.3517 68.3453 73.7568 68.9975C73.1386 69.6778 72.2875 70.1 71.3713 70.1795C71.381 66.4713 71.3898 62.9299 71.3888 62.3894C71.3849 59.8554 69.3517 57.8882 66.7586 57.8882H65.7851C64.5662 57.8707 63.39 58.3414 62.5194 59.1964C61.6499 60.0514 61.1588 61.2189 61.1549 62.4389C61.1501 64.4264 61.1481 67.0807 61.1471 70.3106H48.8801ZM66.3354 40.7453H53.9131V38.815C53.9131 35.6347 56.7042 33.0493 60.1242 33.0493C63.5443 33.0493 66.3354 35.6357 66.3354 38.815V40.7453ZM90.3164 81.0976C90.296 78.5578 88.2279 76.5111 85.6881 76.5159L84.6448 76.514C84.4886 76.514 84.3352 76.5072 84.1829 76.5227C83.9296 74.4031 82.1371 72.8047 80.0029 72.796H78.0396C77.6728 72.7999 77.3079 72.8523 76.9536 72.9523C76.7353 72.6611 76.4791 72.401 76.1928 72.1768C76.3791 72.008 76.5557 71.8304 76.7236 71.644C78.0687 70.1456 78.7102 68.1454 78.488 66.1452L75.7706 42.5136C75.6561 41.5091 74.8069 40.7483 73.7956 40.7453H70.3106V38.815C70.3106 33.4433 65.7357 29.0741 60.1242 29.0741C54.5128 29.0741 49.9379 33.4433 49.9379 38.815V40.7453H46.0899C45.0777 40.7492 44.2294 41.5091 44.1149 42.5136L41.3966 66.1413C41.1743 68.1599 41.8148 70.1786 43.1609 71.7003C44.6138 73.3346 46.6935 74.2741 48.8801 74.2857H61.1452V78.5346C58.653 76.613 55.1611 76.6751 52.7388 78.683L51.8313 79.3653C51.0501 79.9524 50.8249 81.0268 51.3053 81.8769L57.4758 92.9193H28.323V23.354H91.4286V92.9193H90.3154C90.3183 89.9379 90.3222 88.3307 90.3242 87.269C90.328 85.2514 90.328 85.2019 90.3164 81.0976ZM34.0732 3.97516H85.6784C88.851 3.97516 91.4286 6.63723 91.4286 9.80881V19.3789H28.323V9.80881C28.323 6.63723 30.9006 3.97516 34.0732 3.97516ZM85.6784 116.273H34.0732C30.9006 116.273 28.323 113.611 28.323 110.44V96.8944H59.6895L60.3659 98.1347C60.6425 98.6316 60.9579 99.1062 61.3102 99.5526C58.3463 98.9431 55.3193 100.264 53.75 102.852C52.1817 105.44 52.4107 108.734 54.3216 111.08C56.2325 113.427 59.4129 114.317 62.2642 113.304C65.1155 112.291 67.0216 109.594 67.0245 106.568C67.0254 105.308 66.6906 104.07 66.054 102.982C67.1895 103.391 68.3861 103.601 69.5924 103.603H79.7516C84.0907 103.604 87.9853 100.94 89.5555 96.8954H91.4286V110.44C91.4286 113.611 88.851 116.273 85.6784 116.273V116.273Z" fill="black"/>
<path d="M51.4897 13.1677H68.2618C69.3595 13.1677 70.2494 12.2777 70.2494 11.1801C70.2494 10.0825 69.3595 9.1925 68.2618 9.1925H51.4897C50.3921 9.1925 49.5021 10.0825 49.5021 11.1801C49.5021 12.2777 50.3921 13.1677 51.4897 13.1677Z" fill="black"/>
</g>
<defs>
<clipPath id="clip0">
<rect width="120" height="120" fill="white"/>
</clipPath>
</defs>
</svg>
