<svg width="120" height="120" viewBox="0 0 120 120" fill="none" xmlns="http://www.w3.org/2000/svg">
<circle cx="17.9205" cy="28.623" r="7.09352" stroke="black" stroke-width="1.24448"/>
<ellipse cx="17.9204" cy="28.4985" rx="4.72901" ry="4.85346" fill="black"/>
<path d="M32.0948 29.6442L31.373 30.4098V32.3961H30.266V26.0259H31.373V29.0142L31.9855 28.2573L33.8493 26.0259H35.1881L32.8211 28.8479L35.3237 32.3961H34.0111L32.0948 29.6442ZM36.9469 32.3961H35.8837V27.6622H36.9469V32.3961ZM35.8181 26.4328C35.8181 26.2695 35.8691 26.1339 35.9712 26.0259C36.0762 25.918 36.225 25.8641 36.4175 25.8641C36.61 25.8641 36.7587 25.918 36.8637 26.0259C36.9687 26.1339 37.0212 26.2695 37.0212 26.4328C37.0212 26.5933 36.9687 26.7274 36.8637 26.8353C36.7587 26.9403 36.61 26.9928 36.4175 26.9928C36.225 26.9928 36.0762 26.9403 35.9712 26.8353C35.8691 26.7274 35.8181 26.5933 35.8181 26.4328ZM39.095 27.6622L39.1257 28.2091C39.4757 27.7862 39.9351 27.5747 40.5038 27.5747C41.4897 27.5747 41.9914 28.1391 42.0089 29.2679V32.3961H40.9457V29.3292C40.9457 29.0287 40.8801 28.8071 40.7488 28.6641C40.6205 28.5183 40.409 28.4454 40.1144 28.4454C39.6857 28.4454 39.3663 28.6394 39.1563 29.0273V32.3961H38.0931V27.6622H39.095ZM42.9101 29.9942C42.9101 29.2592 43.0822 28.6729 43.4264 28.2354C43.7735 27.795 44.2329 27.5747 44.8046 27.5747C45.3442 27.5747 45.7685 27.7629 46.0777 28.1391L46.1258 27.6622H47.084V32.2517C47.084 32.873 46.89 33.363 46.5021 33.7218C46.1171 34.0805 45.5965 34.2599 44.9402 34.2599C44.5931 34.2599 44.2533 34.187 43.9208 34.0412C43.5912 33.8982 43.3404 33.7101 43.1683 33.4768L43.6714 32.838C43.9981 33.2259 44.4006 33.4199 44.8789 33.4199C45.2319 33.4199 45.5104 33.3236 45.7146 33.1311C45.9188 32.9415 46.0208 32.6615 46.0208 32.2911V31.9717C45.7146 32.313 45.3062 32.4836 44.7958 32.4836C44.2416 32.4836 43.7881 32.2634 43.4351 31.823C43.0851 31.3825 42.9101 30.7729 42.9101 29.9942ZM43.9689 30.0861C43.9689 30.5615 44.0652 30.9363 44.2577 31.2105C44.4531 31.4817 44.7229 31.6173 45.0671 31.6173C45.4958 31.6173 45.8138 31.4336 46.0208 31.0661V28.9835C45.8196 28.6248 45.5046 28.4454 45.0758 28.4454C44.7258 28.4454 44.4531 28.5839 44.2577 28.861C44.0652 29.1381 43.9689 29.5465 43.9689 30.0861ZM53.1217 26.0259H54.2242V30.4929C54.2242 31.1025 54.0331 31.5867 53.651 31.9455C53.2719 32.3042 52.7702 32.4836 52.146 32.4836C51.481 32.4836 50.9676 32.3159 50.606 31.9805C50.2443 31.6451 50.0634 31.1784 50.0634 30.5804H51.166C51.166 30.9188 51.2491 31.174 51.4154 31.3461C51.5845 31.5153 51.8281 31.5998 52.146 31.5998C52.4435 31.5998 52.6798 31.5021 52.8548 31.3067C53.0327 31.1084 53.1217 30.8357 53.1217 30.4886V26.0259ZM58.2187 32.3961C58.172 32.3057 58.1312 32.1584 58.0962 31.9542C57.7578 32.3072 57.3436 32.4836 56.8536 32.4836C56.3782 32.4836 55.9903 32.348 55.6898 32.0767C55.3894 31.8055 55.2392 31.4701 55.2392 31.0705C55.2392 30.5659 55.4259 30.1794 55.7992 29.9111C56.1755 29.6398 56.7122 29.5042 57.4093 29.5042H58.0612V29.1935C58.0612 28.9485 57.9926 28.7531 57.8555 28.6073C57.7184 28.4585 57.5099 28.3841 57.2299 28.3841C56.9878 28.3841 56.7895 28.4454 56.6349 28.5679C56.4803 28.6875 56.403 28.8406 56.403 29.0273H55.3398C55.3398 28.7677 55.4259 28.5256 55.598 28.301C55.7701 28.0735 56.0034 27.8956 56.298 27.7672C56.5955 27.6389 56.9265 27.5747 57.2911 27.5747C57.8453 27.5747 58.2872 27.7147 58.6168 27.9948C58.9464 28.2718 59.1156 28.6627 59.1243 29.1673V31.3023C59.1243 31.7282 59.1841 32.068 59.3037 32.3217V32.3961H58.2187ZM57.0505 31.6305C57.2605 31.6305 57.4574 31.5794 57.6412 31.4773C57.8278 31.3753 57.9678 31.2382 58.0612 31.0661V30.1736H57.488C57.0943 30.1736 56.7982 30.2421 56.5999 30.3792C56.4015 30.5163 56.3024 30.7102 56.3024 30.9611C56.3024 31.1653 56.3695 31.3286 56.5036 31.4511C56.6407 31.5707 56.823 31.6305 57.0505 31.6305ZM61.2375 27.6622L61.2681 28.1566C61.6006 27.7687 62.0556 27.5747 62.6332 27.5747C63.2661 27.5747 63.6992 27.8168 63.9326 28.301C64.2767 27.8168 64.7609 27.5747 65.3851 27.5747C65.9072 27.5747 66.2951 27.7191 66.5489 28.0079C66.8056 28.2966 66.9368 28.7225 66.9426 29.2854V32.3961H65.8795V29.316C65.8795 29.0156 65.8139 28.7954 65.6826 28.6554C65.5514 28.5154 65.3341 28.4454 65.0307 28.4454C64.7886 28.4454 64.5903 28.511 64.4357 28.6423C64.284 28.7706 64.1776 28.9398 64.1163 29.1498L64.1207 32.3961H63.0575V29.281C63.043 28.7239 62.7586 28.4454 62.2044 28.4454C61.7786 28.4454 61.4767 28.6189 61.2987 28.966V32.3961H60.2356V27.6622H61.2375ZM70.119 32.4836C69.4452 32.4836 68.8983 32.2722 68.4783 31.8492C68.0612 31.4234 67.8527 30.8575 67.8527 30.1517V30.0204C67.8527 29.5479 67.9431 29.1264 68.1239 28.756C68.3077 28.3827 68.5644 28.0925 68.8939 27.8854C69.2235 27.6783 69.5911 27.5747 69.9965 27.5747C70.6411 27.5747 71.1384 27.7804 71.4884 28.1916C71.8413 28.6029 72.0178 29.1848 72.0178 29.9373V30.3661H68.9246C68.9567 30.7569 69.0865 31.0661 69.314 31.2936C69.5444 31.5211 69.8331 31.6348 70.1802 31.6348C70.6673 31.6348 71.064 31.438 71.3703 31.0442L71.9434 31.5911C71.7538 31.874 71.5001 32.0942 71.1821 32.2517C70.8671 32.4063 70.5127 32.4836 70.119 32.4836ZM69.9921 28.4279C69.7004 28.4279 69.4642 28.53 69.2833 28.7341C69.1054 28.9383 68.9917 29.2227 68.9421 29.5873H70.9678V29.5085C70.9444 29.1527 70.8496 28.8844 70.6834 28.7035C70.5171 28.5198 70.2867 28.4279 69.9921 28.4279ZM75.5004 31.1098C75.5004 30.9202 75.4216 30.7759 75.2641 30.6767C75.1095 30.5775 74.8514 30.49 74.4897 30.4142C74.128 30.3384 73.8262 30.2421 73.5841 30.1254C73.0532 29.8688 72.7878 29.4969 72.7878 29.0098C72.7878 28.6014 72.9599 28.2602 73.3041 27.986C73.6482 27.7118 74.0858 27.5747 74.6166 27.5747C75.1825 27.5747 75.6389 27.7147 75.986 27.9948C76.336 28.2748 76.511 28.6379 76.511 29.0842H75.4479C75.4479 28.88 75.372 28.7108 75.2204 28.5766C75.0687 28.4396 74.8674 28.371 74.6166 28.371C74.3833 28.371 74.1922 28.425 74.0435 28.5329C73.8976 28.6408 73.8247 28.7852 73.8247 28.966C73.8247 29.1294 73.8932 29.2562 74.0303 29.3467C74.1674 29.4371 74.4445 29.529 74.8616 29.6223C75.2787 29.7127 75.6054 29.8221 75.8416 29.9504C76.0808 30.0758 76.2573 30.2275 76.371 30.4054C76.4877 30.5834 76.546 30.7992 76.546 31.053C76.546 31.4788 76.3696 31.8244 76.0166 32.0899C75.6637 32.3524 75.2014 32.4836 74.6297 32.4836C74.2418 32.4836 73.8962 32.4136 73.5928 32.2736C73.2895 32.1336 73.0532 31.9411 72.8841 31.6961C72.7149 31.4511 72.6303 31.1871 72.6303 30.9042H73.6628C73.6774 31.155 73.7722 31.349 73.9472 31.4861C74.1222 31.6203 74.3541 31.6873 74.6429 31.6873C74.9229 31.6873 75.1358 31.6348 75.2816 31.5298C75.4275 31.4219 75.5004 31.2819 75.5004 31.1098ZM82.0543 31.0092L83.6731 26.0259H84.8894L82.5968 32.3961H81.5249L79.2411 26.0259H80.453L82.0543 31.0092ZM87.4007 32.4836C86.7269 32.4836 86.18 32.2722 85.76 31.8492C85.3429 31.4234 85.1344 30.8575 85.1344 30.1517V30.0204C85.1344 29.5479 85.2248 29.1264 85.4056 28.756C85.5894 28.3827 85.8461 28.0925 86.1757 27.8854C86.5053 27.6783 86.8728 27.5747 87.2782 27.5747C87.9228 27.5747 88.4201 27.7804 88.7701 28.1916C89.123 28.6029 89.2995 29.1848 89.2995 29.9373V30.3661H86.2063C86.2384 30.7569 86.3682 31.0661 86.5957 31.2936C86.8261 31.5211 87.1149 31.6348 87.4619 31.6348C87.949 31.6348 88.3457 31.438 88.652 31.0442L89.2251 31.5911C89.0355 31.874 88.7818 32.0942 88.4638 32.2517C88.1488 32.4063 87.7945 32.4836 87.4007 32.4836ZM87.2738 28.4279C86.9821 28.4279 86.7459 28.53 86.565 28.7341C86.3871 28.9383 86.2734 29.2227 86.2238 29.5873H88.2495V29.5085C88.2261 29.1527 88.1313 28.8844 87.9651 28.7035C87.7988 28.5198 87.5684 28.4279 87.2738 28.4279ZM92.6071 28.6335C92.4671 28.6102 92.3227 28.5985 92.1739 28.5985C91.6869 28.5985 91.3587 28.7852 91.1895 29.1585V32.3961H90.1264V27.6622H91.1414L91.1677 28.1916C91.4243 27.7804 91.7802 27.5747 92.2352 27.5747C92.3869 27.5747 92.5123 27.5952 92.6115 27.636L92.6071 28.6335ZM95.9322 31.1098C95.9322 30.9202 95.8534 30.7759 95.6959 30.6767C95.5413 30.5775 95.2832 30.49 94.9215 30.4142C94.5598 30.3384 94.258 30.2421 94.0159 30.1254C93.485 29.8688 93.2196 29.4969 93.2196 29.0098C93.2196 28.6014 93.3917 28.2602 93.7359 27.986C94.08 27.7118 94.5175 27.5747 95.0484 27.5747C95.6142 27.5747 96.0707 27.7147 96.4178 27.9948C96.7678 28.2748 96.9428 28.6379 96.9428 29.0842H95.8797C95.8797 28.88 95.8038 28.7108 95.6522 28.5766C95.5005 28.4396 95.2992 28.371 95.0484 28.371C94.8151 28.371 94.624 28.425 94.4753 28.5329C94.3294 28.6408 94.2565 28.7852 94.2565 28.966C94.2565 29.1294 94.325 29.2562 94.4621 29.3467C94.5992 29.4371 94.8763 29.529 95.2934 29.6223C95.7105 29.7127 96.0372 29.8221 96.2734 29.9504C96.5126 30.0758 96.6891 30.2275 96.8028 30.4054C96.9195 30.5834 96.9778 30.7992 96.9778 31.053C96.9778 31.4788 96.8014 31.8244 96.4484 32.0899C96.0955 32.3524 95.6332 32.4836 95.0615 32.4836C94.6736 32.4836 94.328 32.4136 94.0246 32.2736C93.7213 32.1336 93.485 31.9411 93.3158 31.6961C93.1467 31.4511 93.0621 31.1871 93.0621 30.9042H94.0946C94.1092 31.155 94.204 31.349 94.379 31.4861C94.554 31.6203 94.7859 31.6873 95.0746 31.6873C95.3547 31.6873 95.5676 31.6348 95.7134 31.5298C95.8593 31.4219 95.9322 31.2819 95.9322 31.1098ZM99.0385 32.3961H97.9753V27.6622H99.0385V32.3961ZM97.9097 26.4328C97.9097 26.2695 97.9608 26.1339 98.0628 26.0259C98.1679 25.918 98.3166 25.8641 98.5091 25.8641C98.7016 25.8641 98.8504 25.918 98.9554 26.0259C99.0604 26.1339 99.1129 26.2695 99.1129 26.4328C99.1129 26.5933 99.0604 26.7274 98.9554 26.8353C98.8504 26.9403 98.7016 26.9928 98.5091 26.9928C98.3166 26.9928 98.1679 26.9403 98.0628 26.8353C97.9608 26.7274 97.9097 26.5933 97.9097 26.4328ZM100.001 29.9854C100.001 29.5217 100.093 29.1046 100.277 28.7341C100.46 28.3608 100.719 28.075 101.051 27.8766C101.384 27.6754 101.766 27.5747 102.197 27.5747C102.836 27.5747 103.354 27.7804 103.751 28.1916C104.15 28.6029 104.366 29.1483 104.398 29.8279L104.402 30.0773C104.402 30.544 104.312 30.9611 104.131 31.3286C103.953 31.6961 103.697 31.9805 103.361 32.1817C103.029 32.383 102.644 32.4836 102.206 32.4836C101.538 32.4836 101.003 32.2619 100.6 31.8186C100.201 31.3723 100.001 30.7788 100.001 30.0379V29.9854ZM101.064 30.0773C101.064 30.5644 101.165 30.9465 101.366 31.2236C101.567 31.4978 101.847 31.6348 102.206 31.6348C102.565 31.6348 102.843 31.4948 103.042 31.2148C103.243 30.9348 103.344 30.525 103.344 29.9854C103.344 29.5071 103.24 29.1279 103.033 28.8479C102.829 28.5679 102.55 28.4279 102.197 28.4279C101.85 28.4279 101.575 28.5664 101.37 28.8435C101.166 29.1177 101.064 29.529 101.064 30.0773ZM106.288 27.6622L106.319 28.2091C106.669 27.7862 107.128 27.5747 107.697 27.5747C108.683 27.5747 109.184 28.1391 109.202 29.2679V32.3961H108.139V29.3292C108.139 29.0287 108.073 28.8071 107.942 28.6641C107.814 28.5183 107.602 28.4454 107.307 28.4454C106.879 28.4454 106.559 28.6394 106.349 29.0273V32.3961H105.286V27.6622H106.288Z" fill="black"/>
<circle cx="17.9205" cy="49.5302" r="7.09352" stroke="black" stroke-width="1.24448"/>
<path d="M35.3193 53.3033H34.2124L31.373 48.7838V53.3033H30.266V46.9332H31.373L34.2212 51.4702V46.9332H35.3193V53.3033ZM37.7344 52.4196H40.6263V53.3033H36.6275V46.9332H37.7344V52.4196ZM45.1764 47.8257H43.1901V53.3033H42.092V47.8257H40.1232V46.9332H45.1764V47.8257Z" fill="black"/>
<circle cx="17.9205" cy="70.4374" r="7.09352" stroke="black" stroke-width="1.24448"/>
<path d="M31.7011 67.8405L33.5386 72.7232L35.3718 67.8405H36.8025V74.2107H35.6999V72.1106L35.8093 69.3018L33.928 74.2107H33.1361L31.2592 69.3062L31.3686 72.1106V74.2107H30.266V67.8405H31.7011ZM41.4445 72.57C41.4445 72.29 41.3453 72.0742 41.147 71.9225C40.9515 71.7708 40.5972 71.6177 40.0838 71.4631C39.5705 71.3085 39.1621 71.1364 38.8588 70.9469C38.2783 70.5823 37.9881 70.1068 37.9881 69.5206C37.9881 69.0072 38.1967 68.5843 38.6138 68.2518C39.0338 67.9193 39.5778 67.753 40.2457 67.753C40.689 67.753 41.0843 67.8347 41.4313 67.998C41.7784 68.1614 42.0512 68.3947 42.2495 68.698C42.4478 68.9985 42.547 69.3324 42.547 69.6999H41.4445C41.4445 69.3674 41.3395 69.1078 41.1295 68.9212C40.9224 68.7316 40.6249 68.6368 40.2369 68.6368C39.8753 68.6368 39.5938 68.7141 39.3925 68.8687C39.1942 69.0233 39.095 69.2391 39.095 69.5162C39.095 69.7495 39.203 69.945 39.4188 70.1025C39.6346 70.257 39.9905 70.4087 40.4863 70.5575C40.9822 70.7033 41.3803 70.871 41.6807 71.0606C41.9812 71.2473 42.2014 71.4631 42.3414 71.7081C42.4814 71.9502 42.5514 72.2346 42.5514 72.5613C42.5514 73.0921 42.3472 73.515 41.9389 73.8301C41.5334 74.1421 40.9822 74.2982 40.2851 74.2982C39.8242 74.2982 39.3998 74.2136 39.0119 74.0444C38.6269 73.8724 38.3265 73.6361 38.1106 73.3357C37.8977 73.0352 37.7912 72.6852 37.7912 72.2856H38.8982C38.8982 72.6473 39.0177 72.9273 39.2569 73.1257C39.4961 73.324 39.8388 73.4232 40.2851 73.4232C40.6701 73.4232 40.9588 73.3459 41.1513 73.1913C41.3468 73.0338 41.4445 72.8267 41.4445 72.57ZM48.4053 73.3838C48.1749 73.6842 47.8555 73.9117 47.4471 74.0663C47.0388 74.2209 46.575 74.2982 46.0558 74.2982C45.5221 74.2982 45.0496 74.1772 44.6383 73.9351C44.227 73.693 43.9091 73.3473 43.6845 72.8982C43.4629 72.4461 43.3476 71.9196 43.3389 71.3187V70.82C43.3389 69.8575 43.5693 69.1064 44.0302 68.5668C44.491 68.0243 45.1342 67.753 45.9596 67.753C46.6684 67.753 47.2313 67.928 47.6484 68.278C48.0655 68.628 48.3163 69.1326 48.4009 69.7918H47.3159C47.1934 69.0247 46.7486 68.6412 45.9815 68.6412C45.4856 68.6412 45.1079 68.8205 44.8483 69.1793C44.5916 69.5352 44.4589 70.0587 44.4502 70.75V71.24C44.4502 71.9283 44.5946 72.4636 44.8833 72.8457C45.175 73.2248 45.579 73.4144 46.0952 73.4144C46.6611 73.4144 47.0636 73.2861 47.3028 73.0294V71.7825H45.9902V70.9425H48.4053V73.3838Z" fill="black"/>
<circle cx="17.9205" cy="91.3448" r="7.09352" stroke="black" stroke-width="1.24448"/>
<path d="M35.1487 94.2909C34.9183 94.5913 34.5989 94.8188 34.1905 94.9734C33.7822 95.128 33.3184 95.2053 32.7992 95.2053C32.2655 95.2053 31.793 95.0843 31.3817 94.8422C30.9704 94.6001 30.6525 94.2544 30.4279 93.8053C30.2063 93.3532 30.091 92.8267 30.0823 92.2258V91.7271C30.0823 90.7646 30.3127 90.0135 30.7736 89.4739C31.2344 88.9314 31.8775 88.6601 32.703 88.6601C33.4118 88.6601 33.9747 88.8351 34.3918 89.1851C34.8089 89.5351 35.0597 90.0397 35.1443 90.6989H34.0593C33.9368 89.9318 33.492 89.5483 32.7249 89.5483C32.229 89.5483 31.8513 89.7277 31.5917 90.0864C31.335 90.4423 31.2023 90.9658 31.1936 91.6571V92.1471C31.1936 92.8354 31.338 93.3707 31.6267 93.7528C31.9184 94.1319 32.3224 94.3215 32.8386 94.3215C33.4045 94.3215 33.807 94.1932 34.0461 93.9365V92.6896H32.7336V91.8496H35.1487V94.2909ZM36.0631 92.7071C36.0631 92.2433 36.155 91.8263 36.3387 91.4558C36.5225 91.0825 36.7806 90.7966 37.1131 90.5983C37.4456 90.397 37.8277 90.2964 38.2594 90.2964C38.8982 90.2964 39.4159 90.5021 39.8126 90.9133C40.2121 91.3246 40.428 91.87 40.4601 92.5496L40.4644 92.799C40.4644 93.2657 40.374 93.6828 40.1932 94.0503C40.0153 94.4178 39.7586 94.7022 39.4232 94.9034C39.0907 95.1047 38.7056 95.2053 38.2681 95.2053C37.6002 95.2053 37.065 94.9836 36.6625 94.5403C36.2629 94.094 36.0631 93.5005 36.0631 92.7596V92.7071ZM37.1262 92.799C37.1262 93.2861 37.2269 93.6682 37.4281 93.9453C37.6294 94.2194 37.9094 94.3565 38.2681 94.3565C38.6269 94.3565 38.9054 94.2165 39.1038 93.9365C39.305 93.6565 39.4057 93.2467 39.4057 92.7071C39.4057 92.2288 39.3021 91.8496 39.095 91.5696C38.8909 91.2896 38.6123 91.1496 38.2594 91.1496C37.9123 91.1496 37.6367 91.2881 37.4325 91.5652C37.2283 91.8394 37.1262 92.2506 37.1262 92.799ZM41.1645 92.7071C41.1645 92.2433 41.2563 91.8263 41.4401 91.4558C41.6239 91.0825 41.882 90.7966 42.2145 90.5983C42.547 90.397 42.9291 90.2964 43.3608 90.2964C43.9995 90.2964 44.5173 90.5021 44.9139 90.9133C45.3135 91.3246 45.5294 91.87 45.5615 92.5496L45.5658 92.799C45.5658 93.2657 45.4754 93.6828 45.2946 94.0503C45.1167 94.4178 44.86 94.7022 44.5246 94.9034C44.192 95.1047 43.807 95.2053 43.3695 95.2053C42.7016 95.2053 42.1664 94.9836 41.7639 94.5403C41.3643 94.094 41.1645 93.5005 41.1645 92.7596V92.7071ZM42.2276 92.799C42.2276 93.2861 42.3282 93.6682 42.5295 93.9453C42.7308 94.2194 43.0108 94.3565 43.3695 94.3565C43.7283 94.3565 44.0068 94.2165 44.2052 93.9365C44.4064 93.6565 44.5071 93.2467 44.5071 92.7071C44.5071 92.2288 44.4035 91.8496 44.1964 91.5696C43.9922 91.2896 43.7137 91.1496 43.3608 91.1496C43.0137 91.1496 42.738 91.2881 42.5339 91.5652C42.3297 91.8394 42.2276 92.2506 42.2276 92.799ZM46.2658 92.7159C46.2658 91.9867 46.435 91.4019 46.7734 90.9614C47.1117 90.5181 47.5653 90.2964 48.134 90.2964C48.6357 90.2964 49.0411 90.4714 49.3503 90.8214V88.3976H50.4135V95.1178H49.4509L49.3984 94.6278C49.0805 95.0128 48.6561 95.2053 48.1253 95.2053C47.5711 95.2053 47.1219 94.9822 46.7777 94.5359C46.4365 94.0896 46.2658 93.483 46.2658 92.7159ZM47.329 92.8077C47.329 93.289 47.4209 93.6653 47.6046 93.9365C47.7913 94.2049 48.0553 94.339 48.3965 94.339C48.8311 94.339 49.149 94.1451 49.3503 93.7571V91.7358C49.1549 91.3567 48.8399 91.1671 48.4053 91.1671C48.0611 91.1671 47.7957 91.3042 47.609 91.5783C47.4223 91.8496 47.329 92.2594 47.329 92.8077ZM58.9099 95.1178H57.803L54.9636 90.5983V95.1178H53.8567V88.7476H54.9636L57.8118 93.2846V88.7476H58.9099V95.1178ZM62.2 95.2053C61.5263 95.2053 60.9794 94.9938 60.5594 94.5709C60.1423 94.1451 59.9337 93.5792 59.9337 92.8734V92.7421C59.9337 92.2696 60.0241 91.8481 60.205 91.4777C60.3887 91.1044 60.6454 90.8141 60.975 90.6071C61.3046 90.4 61.6721 90.2964 62.0775 90.2964C62.7221 90.2964 63.2194 90.5021 63.5694 90.9133C63.9224 91.3246 64.0988 91.9065 64.0988 92.659V93.0877H61.0056C61.0377 93.4786 61.1675 93.7878 61.395 94.0153C61.6254 94.2428 61.9142 94.3565 62.2613 94.3565C62.7484 94.3565 63.145 94.1596 63.4513 93.7659L64.0244 94.3128C63.8349 94.5957 63.5811 94.8159 63.2632 94.9734C62.9482 95.128 62.5938 95.2053 62.2 95.2053ZM62.0731 91.1496C61.7815 91.1496 61.5452 91.2517 61.3644 91.4558C61.1865 91.66 61.0727 91.9444 61.0231 92.309H63.0488V92.2302C63.0255 91.8744 62.9307 91.606 62.7644 91.4252C62.5982 91.2414 62.3677 91.1496 62.0731 91.1496ZM69.0865 93.6521L69.839 90.3839H70.8759L69.5852 95.1178H68.7102L67.6952 91.8671L66.6976 95.1178H65.8226L64.5276 90.3839H65.5645L66.3301 93.6171L67.3014 90.3839H68.1021L69.0865 93.6521ZM74.2403 93.8315C74.2403 93.6419 74.1616 93.4975 74.0041 93.3984C73.8495 93.2992 73.5914 93.2117 73.2297 93.1359C72.868 93.06 72.5661 92.9638 72.324 92.8471C71.7932 92.5904 71.5278 92.2186 71.5278 91.7315C71.5278 91.3231 71.6999 90.9819 72.044 90.7077C72.3882 90.4335 72.8257 90.2964 73.3566 90.2964C73.9224 90.2964 74.3789 90.4364 74.726 90.7164C75.076 90.9964 75.251 91.3596 75.251 91.8058H74.1878C74.1878 91.6017 74.112 91.4325 73.9603 91.2983C73.8087 91.1612 73.6074 91.0927 73.3566 91.0927C73.1232 91.0927 72.9322 91.1467 72.7834 91.2546C72.6376 91.3625 72.5647 91.5069 72.5647 91.6877C72.5647 91.851 72.6332 91.9779 72.7703 92.0683C72.9074 92.1588 73.1845 92.2506 73.6016 92.344C74.0187 92.4344 74.3453 92.5438 74.5816 92.6721C74.8208 92.7975 74.9972 92.9492 75.111 93.1271C75.2277 93.305 75.286 93.5209 75.286 93.7746C75.286 94.2005 75.1095 94.5461 74.7566 94.8115C74.4037 95.074 73.9414 95.2053 73.3697 95.2053C72.9818 95.2053 72.6361 95.1353 72.3328 94.9953C72.0295 94.8553 71.7932 94.6628 71.624 94.4178C71.4549 94.1728 71.3703 93.9088 71.3703 93.6259H72.4028C72.4174 93.8767 72.5122 94.0707 72.6872 94.2078C72.8622 94.3419 73.0941 94.409 73.3828 94.409C73.6628 94.409 73.8758 94.3565 74.0216 94.2515C74.1674 94.1436 74.2403 94.0036 74.2403 93.8315Z" fill="black"/>
</svg>
