<svg width="483" height="483" viewBox="0 0 483 483" fill="none" xmlns="http://www.w3.org/2000/svg">
<path d="M439.9 182.067H388.333V42.1C388.333 29.8944 378.439 20 366.233 20H42.1C29.8944 20 20 29.8944 20 42.1V263.1C20 275.306 29.8944 285.2 42.1 285.2H159.967V344.133H130.5V358.867H270.467V439.9C270.467 452.106 280.361 462 292.567 462H439.9C452.106 462 462 452.106 462 439.9V204.167C462 191.961 452.106 182.067 439.9 182.067ZM233.633 344.133H174.7V285.2H233.633V344.133ZM270.467 344.133H248.367V285.2H270.467V344.133ZM270.467 270.467H42.1C38.0318 270.467 34.7333 267.168 34.7333 263.1V42.1C34.7333 38.0318 38.0318 34.7333 42.1 34.7333H366.233C370.302 34.7333 373.6 38.0318 373.6 42.1V182.067H366.233V42.1H42.1V248.367H270.467V270.467ZM270.467 204.167V233.633H56.8333V56.8333H351.5V182.067H292.567C280.361 182.067 270.467 191.961 270.467 204.167ZM447.267 439.9C447.267 443.968 443.968 447.267 439.9 447.267H292.567C288.498 447.267 285.2 443.968 285.2 439.9V403.067H447.267V439.9ZM447.267 388.333H285.2V204.167C285.2 200.098 288.498 196.8 292.567 196.8H439.9C443.968 196.8 447.267 200.098 447.267 204.167V388.333Z" fill="black"/>
<path d="M351.5 417.8H336.767V432.533H351.5V417.8Z" fill="black"/>
<path d="M373.6 417.8H358.867V432.533H373.6V417.8Z" fill="black"/>
<path d="M395.7 417.8H380.967V432.533H395.7V417.8Z" fill="black"/>
<path d="M358.867 304.25L343.235 288.625L332.818 299.042L358.867 325.083L405.748 278.202L395.332 267.785L358.867 304.25Z" fill="black"/>
<path d="M366.233 233.633C333.7 233.67 307.337 260.034 307.3 292.567C307.3 325.114 333.686 351.5 366.233 351.5C398.781 351.5 425.167 325.114 425.167 292.567C425.167 260.019 398.781 233.633 366.233 233.633ZM366.233 336.767C341.822 336.767 322.033 316.978 322.033 292.567C322.033 268.155 341.822 248.367 366.233 248.367C390.634 248.391 410.409 268.165 410.433 292.567C410.433 316.978 390.645 336.767 366.233 336.767Z" fill="black"/>
<path d="M263.1 105.35L226.635 141.808L237.051 152.224L255.733 133.55V159.967C255.709 180.299 239.232 196.776 218.9 196.8H130.5V211.533H218.9C247.366 211.501 270.434 188.432 270.467 159.967V133.55L289.149 152.224L299.565 141.808L263.1 105.35Z" fill="black"/>
<path d="M141.815 138.242L123.133 156.917V130.5C123.157 110.168 139.635 93.6906 159.967 93.6667H248.367V78.9333H159.967C131.501 78.9656 108.432 102.034 108.4 130.5V156.917L89.7181 138.242L79.3016 148.659L115.767 185.116L152.232 148.659L141.815 138.242Z" fill="black"/>
</svg>
