<svg width="120" height="120" viewBox="0 0 120 120" fill="none" xmlns="http://www.w3.org/2000/svg">
<path d="M114 44H100V6C100 2.68625 97.3138 0 94 0H6C2.68625 0 0 2.68625 0 6V66C0 69.3138 2.68625 72 6 72H38V88H30V92H68V114C68 117.314 70.6862 120 74 120H114C117.314 120 120 117.314 120 114V50C120 46.6862 117.314 44 114 44ZM58 88H42V72H58V88ZM68 88H62V72H68V88ZM68 68H6C4.8955 68 4 67.1045 4 66V6C4 4.8955 4.8955 4 6 4H94C95.1045 4 96 4.8955 96 6V44H94V6H6V62H68V68ZM68 50V58H10V10H90V44H74C70.6862 44 68 46.6862 68 50ZM116 114C116 115.105 115.105 116 114 116H74C72.8955 116 72 115.105 72 114V104H116V114ZM116 100H72V50C72 48.8955 72.8955 48 74 48H114C115.105 48 116 48.8955 116 50V100Z" fill="black"/>
<path d="M90 108H86V112H90V108Z" fill="black"/>
<path d="M96 108H92V112H96V108Z" fill="black"/>
<path d="M102 108H98V112H102V108Z" fill="black"/>
<path d="M92 77.172L87.756 72.93L84.928 75.758L92 82.828L104.728 70.1L101.9 67.272L92 77.172Z" fill="black"/>
<path d="M94 58C85.1675 58.01 78.01 65.1675 78 74C78 82.8365 85.1635 90 94 90C102.837 90 110 82.8365 110 74C110 65.1635 102.837 58 94 58ZM94 86C87.3725 86 82 80.6275 82 74C82 67.3725 87.3725 62 94 62C100.625 62.0065 105.993 67.3752 106 74C106 80.6275 100.628 86 94 86Z" fill="black"/>
<path d="M66 23.172L56.1 33.07L58.928 35.898L64 30.828V38C63.9935 43.52 59.52 47.9935 54 48H30V52H54C61.7283 51.9912 67.9913 45.7282 68 38V30.828L73.072 35.898L75.9 33.07L66 23.172Z" fill="black"/>
<path d="M33.072 32.102L28 37.172V30C28.0065 24.48 32.48 20.0065 38 20H62V16H38C30.2717 16.0088 24.0087 22.2718 24 30V37.172L18.928 32.102L16.1 34.93L26 44.828L35.9 34.93L33.072 32.102Z" fill="black"/>
</svg>
